<svg width="103" height="39" fill="none" xmlns="http://www.w3.org/2000/svg"><path fill="#F5F5F5" d="M0 0h103v39H0z"/><g clip-path="url(#a)"><path fill="#fff" d="M-397-4082H683v7083H-397z"/><path fill="#4D9600" fill-opacity=".102" d="M-397-551H683v683H-397z"/><path fill="#fff" d="M-317-331h430V52h-430z"/><path d="m14.622 10.56-.48.04c-.2.02-.24 0-.26-.22-.02-.24.02-.26.22-.3.82-.18 2.22-.56 3.2-.88.12 0 .22.08.22.16-.02.58-.04 1.18-.04 1.68.64-1.22 1.78-1.9 2.82-1.9 1.14 0 2.4.5 2.86 1.98.74-1.28 1.74-1.98 3.12-1.98.62 0 2.84.32 2.84 2.86 0 .74-.02 1.74-.02 2.22v1.38c0 1.2 0 1.82.14 2.12.16.3.58.32 1.12.38.12.02.16.04.16.22 0 .2-.02.24-.16.24-.7 0-1.52-.06-2.2-.06-.7 0-1.54.04-2.32.06-.16 0-.18-.04-.18-.24 0-.2.04-.22.18-.22.56-.06.88-.06 1.04-.38.16-.32.16-.96.16-2.12v-2.72c0-.58.02-1.1-.22-1.72-.22-.6-.64-1-1.4-1-.76 0-1.34.5-1.72 1.14-.36.58-.42.94-.42 1.56v2.74c0 1.2 0 1.82.14 2.12.14.3.54.32 1.14.38.12.02.14.06.14.24s-.02.22-.16.22c-.76-.02-1.56-.06-2.2-.06-.72 0-1.54.04-2.28.06-.16 0-.18-.04-.18-.24 0-.18.04-.22.18-.22.54-.04.86-.06 1.02-.38.16-.32.16-.96.16-2.12v-2.72c0-.58.04-1.1-.22-1.72-.24-.62-.68-1-1.42-1-.74 0-1.3.5-1.68 1.14-.36.6-.44.96-.44 1.6v2.7c0 1.2-.02 1.82.12 2.12.14.32.56.32 1.12.38.12.02.16.06.16.26 0 .18-.04.2-.16.2-.7-.02-1.54-.06-2.22-.06-.7 0-1.5.04-2.24.06-.14 0-.18-.04-.18-.22s.04-.22.18-.24c.56-.06.88-.06 1.06-.38.18-.32.14-.96.14-2.12v-2.96c0-.72 0-1.3-.14-1.66-.12-.34-.32-.46-.7-.42Zm21.645-1.42c2.72 0 4.68 2.12 4.68 4.88 0 2.68-1.86 4.86-4.68 4.86-2.76 0-4.66-2.1-4.66-4.82 0-2.68 1.9-4.92 4.66-4.92Zm0 .6c-1.54 0-2.32 1.88-2.32 4.28 0 2.5.74 4.26 2.32 4.26 1.54 0 2.34-1.9 2.34-4.26 0-2.54-.74-4.28-2.34-4.28Zm6.716.82-.5.04c-.22.02-.26 0-.28-.22-.02-.22.02-.26.24-.3.78-.16 2.26-.56 3.2-.9.14 0 .26.08.26.18-.02.56-.06 1.16-.06 1.96.6-1.08 1.44-2.2 2.58-2.2.68 0 1.1.26 1.1.62 0 .8-.6 1.5-1.08 1.5-.44 0-.72-.44-1.12-.44-.24 0-.52.1-.92.6-.38.46-.56 1-.56 1.76v2.44c0 1.2 0 1.84.14 2.12.16.32.48.32 1.18.38.12 0 .14.04.14.26 0 .18-.04.2-.14.2-.76-.02-1.6-.06-2.26-.06-.68 0-1.6.04-2.34.06-.12 0-.16-.02-.16-.2 0-.22.04-.24.16-.26.6-.06.92-.06 1.06-.38.18-.34.2-.96.2-2.12v-2.96c0-.72-.04-1.26-.16-1.64-.1-.36-.34-.46-.68-.44Zm9.752 2.7c-.04.18-.08.38-.08.72 0 2.64 1.62 3.96 2.86 3.96 1.3 0 2.04-.44 2.78-1.44.06-.08.14-.1.2-.1s.12.04.18.08c.08.06.16.14.16.2 0 .04-.04.12-.1.22-.92 1.42-2.04 1.98-3.7 1.98-2.76 0-4.62-2.04-4.62-4.8 0-2.7 1.92-4.94 4.64-4.94 2.64 0 3.84 2.32 3.9 3.72 0 .16 0 .2-.1.34-.1.12-.18.1-.3.1-2.02-.06-4.04-.08-5.82-.04Zm.1-.72c1.4.04 2.34.04 3.74-.06.16-.02.18-.14.18-.32-.06-1.12-.54-2.42-1.7-2.42-1.08 0-1.92 1.16-2.22 2.8Z" fill="#55A500"/><path d="M13 24.195h80L82.551 14v18" stroke="#55A500"/></g><defs><clipPath id="a"><path fill="#fff" transform="translate(-397 -4082)" d="M0 0h1080v7083H0z"/></clipPath></defs></svg>